# xmcd
#
# Track frame offsets:
#	150
#	17389
#	29955
#	40072
#	49096
#	61429
#	76824
#	94671
#	107494
#	122003
#	137068
#	148913
#	156628
#	169461
#
# Disc length: 2423 seconds
#
# Revision: 1
# Processed by: cddbd v1.5.2PL0 Copyright (c) Steve Scherf et al.
# Submitted via: audiograbber 1.83.01
#
DISCID=c309750e
DTITLE=Lost Boyz Army - Unvergleichlich
DYEAR=2011
DGENRE=Rock
TTITLE0=Unvergleichlich
TTITLE1=Was immer
TTITLE2=Dagegen
TTITLE3=Der Auserwählte
TTITLE4=Proletenpoesie
TTITLE5=Nimm mich mit
TTITLE6=N bisschen anders
TTITLE7=Alles Gute
TTITLE8=Viel zu stolz
TTITLE9=Immer noch der Junge
TTITLE10=Nichts
TTITLE11=Was denkst Du?
TTITLE12=Wir sind die Jungs
TTITLE13=Wenn wir gehen
EXTD=
EXTT0=
EXTT1=
EXTT2=
EXTT3=
EXTT4=
EXTT5=
EXTT6=
EXTT7=
EXTT8=
EXTT9=
EXTT10=
EXTT11=
EXTT12=
EXTT13=
PLAYORDER=
